<svg width="100" height="145" viewBox="0 0 100 145" fill="none" xmlns="http://www.w3.org/2000/svg">
<path fill-rule="evenodd" clip-rule="evenodd" d="M55.3948 8.425C55.3948 11.3335 53.7732 13.8514 51.4115 15.0696C50.5601 17.6922 50.0677 20.7963 50.0677 24.1232C50.0677 27.7704 50.6595 31.1499 51.6673 33.9206C62.5786 34.4752 71.2667 38.2343 72.7281 43H72.0115C77.8407 48.4655 77.588 61.4306 77.5209 64.8755C77.5156 65.1443 77.5115 65.3552 77.5115 65.5C77.5115 66.1332 77.2108 67.5685 76.895 69.0757C76.2133 72.3287 75.4614 75.9169 77.5115 72.5C80.5115 67.5 72.0115 83 72.0115 83C71.9338 83.1134 71.8558 83.2265 71.7778 83.3395C71.8523 83.496 71.9264 83.6532 72 83.8113C71.1618 84.6198 70.3451 85.4997 69.5522 86.4469C68.8619 87.3775 68.1646 88.2878 67.4641 89.1739C61.3006 97.9479 56.8743 111.035 55.3704 126.139C86.5062 127.922 111 146.654 111 169.5C111 193.524 83.9132 213 50.5 213C17.0868 213 -10 193.524 -10 169.5C-10 147.388 12.9462 129.129 42.6517 126.363C41.4789 114.338 38.455 103.581 34.1757 95.2463L27.8308 85.7289C27.233 85.0515 26.6225 84.4117 26 83.8113C26.0758 83.6486 26.152 83.4868 26.2287 83.3258L25.0115 81.5L20.0115 71.5C20.0115 71.5 23.0115 73.5 20.0115 63.5C17.6792 55.7256 19.7428 52.2216 22.5281 47.4921C23.3255 46.1382 24.1821 44.6838 25.0115 43C26.4316 38.3691 34.6756 34.6886 45.1524 33.9753C46.1723 31.1944 46.7719 27.7945 46.7719 24.1232C46.7719 20.8995 46.3096 17.885 45.5063 15.3151C42.8616 14.2166 40.9948 11.5456 40.9948 8.425C40.9948 4.32429 44.2184 1 48.1948 1C52.1713 1 55.3948 4.32429 55.3948 8.425Z" fill="#20EB4D"/>
<path d="M51.4115 15.0696L51.1823 14.6253L50.9995 14.7196L50.9359 14.9152L51.4115 15.0696ZM51.6673 33.9206L51.1974 34.0915L51.3107 34.4031L51.6419 34.42L51.6673 33.9206ZM72.7281 43V43.5H73.4044L73.2061 42.8534L72.7281 43ZM72.0115 43V42.5H70.7472L71.6695 43.3647L72.0115 43ZM77.5209 64.8755L78.0208 64.8852V64.8852L77.5209 64.8755ZM76.895 69.0757L77.3843 69.1783L76.895 69.0757ZM77.5115 72.5L77.0828 72.2428L77.5115 72.5ZM72.0115 83L72.4238 83.2828L72.4379 83.2623L72.4499 83.2404L72.0115 83ZM71.7778 83.3395L71.3665 83.0551L71.202 83.2931L71.3263 83.5544L71.7778 83.3395ZM72 83.8113L72.3471 84.1712L72.6039 83.9235L72.4532 83.6001L72 83.8113ZM69.5522 86.4469L69.1688 86.126L69.1594 86.1373L69.1506 86.1491L69.5522 86.4469ZM67.4641 89.1739L67.0719 88.8638L67.0631 88.8749L67.055 88.8865L67.4641 89.1739ZM55.3704 126.139L54.8728 126.089L54.8211 126.608L55.3418 126.638L55.3704 126.139ZM42.6517 126.363L42.6981 126.861L43.1981 126.814L43.1493 126.314L42.6517 126.363ZM34.1757 95.2463L34.6205 95.0179L34.6075 94.9926L34.5917 94.9689L34.1757 95.2463ZM27.8308 85.7289L28.2468 85.4516L28.2281 85.4235L28.2057 85.3981L27.8308 85.7289ZM26 83.8113L25.5468 83.6001L25.3961 83.9235L25.6529 84.1712L26 83.8113ZM26.2287 83.3258L26.6801 83.5408L26.8022 83.2846L26.6448 83.0484L26.2287 83.3258ZM25.0115 81.5L24.5643 81.7236L24.5782 81.7514L24.5955 81.7774L25.0115 81.5ZM20.0115 71.5L20.2889 71.084L18.7223 70.0396L19.5643 71.7236L20.0115 71.5ZM20.0115 63.5L19.5326 63.6437L20.0115 63.5ZM22.5281 47.4921L22.0973 47.2384L22.5281 47.4921ZM25.0115 43L25.4601 43.221L25.4778 43.185L25.4896 43.1466L25.0115 43ZM45.1524 33.9753L45.1864 34.4741L45.5101 34.4521L45.6218 34.1475L45.1524 33.9753ZM45.5063 15.3151L45.9836 15.1659L45.9139 14.9429L45.6981 14.8533L45.5063 15.3151ZM51.6407 15.514C54.1675 14.2106 55.8948 11.5219 55.8948 8.425H54.8948C54.8948 11.145 53.3789 13.4922 51.1823 14.6253L51.6407 15.514ZM50.5677 24.1232C50.5677 20.8438 51.0533 17.7923 51.8871 15.224L50.9359 14.9152C50.0669 17.5921 49.5677 20.7487 49.5677 24.1232H50.5677ZM52.1372 33.7497C51.1515 31.0397 50.5677 27.7188 50.5677 24.1232H49.5677C49.5677 27.822 50.1676 31.26 51.1974 34.0915L52.1372 33.7497ZM73.2061 42.8534C72.409 40.254 69.696 38.0432 65.9395 36.4221C62.1548 34.7888 57.194 33.7009 51.6927 33.4213L51.6419 34.42C57.0518 34.695 61.8908 35.764 65.5433 37.3402C69.224 38.9287 71.5858 40.9804 72.2501 43.1466L73.2061 42.8534ZM72.0115 43.5H72.7281V42.5H72.0115V43.5ZM78.0208 64.8852C78.0544 63.1606 78.1356 59.0213 77.4717 54.6208C76.8115 50.245 75.3982 45.49 72.3535 42.6353L71.6695 43.3647C74.454 45.9755 75.829 50.4357 76.4829 54.77C77.1331 59.0798 77.0545 63.1454 77.021 64.8657L78.0208 64.8852ZM78.0115 65.5C78.0115 65.3613 78.0155 65.1565 78.0208 64.8852L77.021 64.8657C77.0158 65.1322 77.0115 65.3491 77.0115 65.5H78.0115ZM77.3843 69.1783C77.5419 68.4265 77.6974 67.6841 77.8135 67.0502C77.9272 66.4288 78.0115 65.8687 78.0115 65.5H77.0115C77.0115 65.7646 76.9454 66.2387 76.8298 66.8701C76.7166 67.4889 76.5639 68.2177 76.4056 68.9732L77.3843 69.1783ZM77.0828 72.2428C76.8314 72.6618 76.631 72.9597 76.4748 73.159C76.3017 73.38 76.2305 73.4164 76.2491 73.408C76.2744 73.3966 76.3825 73.3576 76.5172 73.4144C76.6441 73.468 76.6883 73.5627 76.6937 73.5752C76.6973 73.5832 76.6746 73.5138 76.6787 73.2987C76.6863 72.9049 76.773 72.2937 76.9074 71.5529C77.0403 70.8204 77.2136 69.9932 77.3843 69.1783L76.4056 68.9732C76.2355 69.7847 76.0592 70.626 75.9234 71.3744C75.7892 72.1145 75.6882 72.7967 75.6789 73.2794C75.6746 73.5026 75.6861 73.7672 75.7778 73.9765C75.8273 74.0896 75.9291 74.2516 76.1284 74.3357C76.3355 74.4231 76.5308 74.3779 76.6597 74.3198C76.8855 74.2181 77.0866 73.9997 77.2621 73.7756C77.4546 73.5299 77.6792 73.1924 77.9403 72.7572L77.0828 72.2428ZM72.0115 83C72.4499 83.2404 72.45 83.2404 72.45 83.2402C72.4501 83.2401 72.4502 83.2399 72.4503 83.2397C72.4506 83.2392 72.451 83.2385 72.4515 83.2376C72.4525 83.2357 72.4541 83.2329 72.4561 83.2292C72.4602 83.2217 72.4663 83.2106 72.4743 83.196C72.4903 83.1668 72.514 83.1236 72.5448 83.0674C72.6063 82.955 72.6962 82.7909 72.8095 82.5838C73.0362 82.1695 73.3566 81.5834 73.7317 80.8957C74.4819 79.5203 75.4511 77.7382 76.3268 76.1121C77.2009 74.4886 77.986 73.0129 78.365 72.2549C78.4589 72.0671 78.5331 71.9129 78.5775 71.8093C78.5931 71.7729 78.6269 71.6944 78.6421 71.6184C78.6458 71.5999 78.6575 71.5403 78.6507 71.4655C78.6468 71.4229 78.6128 71.1337 78.3086 71.0324C78.1794 70.9893 78.068 71.0092 78.0071 71.0271C77.9456 71.0452 77.9006 71.0712 77.8767 71.0865C77.8291 71.1167 77.7963 71.1487 77.783 71.1621C77.7327 71.2124 77.6863 71.2783 77.6574 71.32C77.6203 71.3736 77.5751 71.4425 77.5223 71.5255C77.4163 71.6921 77.2711 71.9289 77.0828 72.2428L77.9403 72.7572C78.127 72.4461 78.2669 72.218 78.366 72.0624C78.4157 71.9843 78.453 71.9276 78.4796 71.8892C78.5145 71.8389 78.513 71.8462 78.4901 71.8692C78.4836 71.8757 78.4565 71.9028 78.4136 71.9301C78.392 71.9439 78.3491 71.9689 78.2893 71.9865C78.2302 72.0038 78.1204 72.0237 77.9924 71.981C77.6908 71.8805 77.6582 71.594 77.6548 71.556C77.6484 71.4858 77.6594 71.4327 77.6615 71.4223C77.6701 71.3793 77.6809 71.3628 77.6584 71.4153C77.6267 71.4894 77.5642 71.6204 77.4706 71.8076C77.0996 72.5496 76.3221 74.0114 75.4463 75.6379C74.5719 77.2618 73.6037 79.0422 72.8538 80.4168C72.479 81.1041 72.1588 81.6898 71.9323 82.1037C71.819 82.3107 71.7292 82.4747 71.6677 82.5869C71.637 82.643 71.6133 82.6862 71.5974 82.7154C71.5894 82.7299 71.5833 82.741 71.5792 82.7484C71.5772 82.7521 71.5757 82.7549 71.5747 82.7568C71.5741 82.7577 71.5738 82.7584 71.5735 82.7589C71.5734 82.7591 71.5733 82.7593 71.5732 82.7594C71.5732 82.7595 71.5731 82.7596 72.0115 83ZM72.1891 83.6238C72.2675 83.5103 72.3457 83.3967 72.4238 83.2828L71.5992 82.7172C71.5218 82.83 71.4442 82.9427 71.3665 83.0551L72.1891 83.6238ZM72.4532 83.6001C72.379 83.4408 72.3043 83.2823 72.2292 83.1245L71.3263 83.5544C71.4002 83.7096 71.4737 83.8657 71.5468 84.0225L72.4532 83.6001ZM69.9356 86.7679C70.7179 85.8333 71.5225 84.9665 72.3471 84.1712L71.6529 83.4514C70.801 84.2731 69.9723 85.1661 69.1688 86.126L69.9356 86.7679ZM67.8564 89.484C68.5601 88.5938 69.2604 87.6795 69.9538 86.7448L69.1506 86.1491C68.4633 87.0756 67.7692 87.9818 67.0719 88.8638L67.8564 89.484ZM55.8679 126.188C57.366 111.143 61.7728 98.1455 67.8733 89.4613L67.055 88.8865C60.8284 97.7502 56.3826 110.927 54.8728 126.089L55.8679 126.188ZM111.5 169.5C111.5 157.886 105.273 147.357 95.1674 139.526C85.0624 131.695 71.055 126.536 55.3989 125.64L55.3418 126.638C70.8215 127.525 84.6289 132.624 94.5548 140.316C104.48 148.008 110.5 158.269 110.5 169.5H111.5ZM50.5 213.5C67.2995 213.5 82.5293 208.605 93.5718 200.665C104.614 192.726 111.5 181.714 111.5 169.5H110.5C110.5 181.31 103.843 192.048 92.9881 199.853C82.1339 207.657 67.1137 212.5 50.5 212.5V213.5ZM-10.5 169.5C-10.5 181.714 -3.61358 192.726 7.42815 200.665C18.4707 208.605 33.7005 213.5 50.5 213.5V212.5C33.8863 212.5 18.8661 207.657 8.01193 199.853C-2.84304 192.048 -9.5 181.31 -9.5 169.5H-10.5ZM42.6053 125.865C27.6674 127.256 14.4074 132.544 4.87108 140.289C-4.66607 148.034 -10.5 158.259 -10.5 169.5H-9.5C-9.5 158.629 -3.86082 148.668 5.5015 141.065C14.8647 133.461 27.9305 128.236 42.6981 126.861L42.6053 125.865ZM33.7309 95.4746C37.9762 103.743 40.9861 114.437 42.1541 126.411L43.1493 126.314C41.9716 114.239 38.9338 103.419 34.6205 95.0179L33.7309 95.4746ZM27.4148 86.0063L33.7597 95.5236L34.5917 94.9689L28.2468 85.4516L27.4148 86.0063ZM25.6529 84.1712C26.2652 84.7618 26.8665 85.3918 27.4559 86.0598L28.2057 85.3981C27.5995 84.7111 26.9797 84.0616 26.3471 83.4514L25.6529 84.1712ZM25.7773 83.1108C25.7 83.2731 25.6232 83.4362 25.5468 83.6001L26.4532 84.0225C26.5284 83.8611 26.6041 83.7005 26.6801 83.5408L25.7773 83.1108ZM24.5955 81.7774L25.8127 83.6031L26.6448 83.0484L25.4276 81.2226L24.5955 81.7774ZM19.5643 71.7236L24.5643 81.7236L25.4587 81.2764L20.4587 71.2764L19.5643 71.7236ZM19.5326 63.6437C20.2785 66.13 20.6446 67.8485 20.7805 69.0261C20.9188 70.2249 20.8085 70.7881 20.6893 71.0264C20.6374 71.1302 20.5949 71.1505 20.5876 71.154C20.5747 71.1602 20.5492 71.1673 20.4995 71.1606C20.4479 71.1538 20.3922 71.1346 20.3441 71.1124C20.3215 71.102 20.3041 71.0925 20.2936 71.0865C20.2885 71.0836 20.2854 71.0816 20.2844 71.081C20.284 71.0808 20.2841 71.0808 20.2848 71.0813C20.2852 71.0815 20.2857 71.0819 20.2864 71.0823C20.2867 71.0825 20.2871 71.0828 20.2875 71.0831C20.2877 71.0832 20.2881 71.0834 20.2882 71.0835C20.2885 71.0837 20.2889 71.084 20.0115 71.5C19.7342 71.916 19.7346 71.9163 19.735 71.9165C19.7351 71.9166 19.7355 71.9169 19.7358 71.9171C19.7364 71.9175 19.7371 71.9179 19.7378 71.9184C19.7392 71.9193 19.7408 71.9204 19.7426 71.9215C19.7462 71.9238 19.7505 71.9266 19.7557 71.9298C19.7659 71.9362 19.7792 71.9443 19.7954 71.9535C19.8274 71.9719 19.8714 71.9956 19.9251 72.0204C20.0293 72.0685 20.1845 72.1275 20.3673 72.1519C20.552 72.1765 20.7843 72.168 21.0175 72.0569C21.2563 71.9432 21.4482 71.7448 21.5837 71.4736C21.8396 70.9619 21.9168 70.1501 21.7739 68.9114C21.6285 67.6515 21.2446 65.87 20.4904 63.3563L19.5326 63.6437ZM22.0973 47.2384C20.7115 49.5915 19.4568 51.7146 18.864 54.24C18.2669 56.7834 18.3477 59.6939 19.5326 63.6437L20.4904 63.3563C19.3431 59.5318 19.2895 56.8031 19.8375 54.4685C20.3897 52.1159 21.5595 50.1223 22.959 47.7459L22.0973 47.2384ZM24.563 42.779C23.7429 44.4439 22.8953 45.8833 22.0973 47.2384L22.959 47.7459C23.7557 46.393 24.6213 44.9236 25.4601 43.221L24.563 42.779ZM45.1184 33.4765C39.8355 33.8361 35.095 34.9447 31.4814 36.5622C27.8936 38.1681 25.3084 40.3265 24.5335 42.8534L25.4896 43.1466C26.1347 41.0426 28.3815 39.0453 31.89 37.4749C35.3726 35.9161 39.9925 34.8278 45.1864 34.4741L45.1184 33.4765ZM46.2719 24.1232C46.2719 27.7426 45.6804 31.0834 44.683 33.8031L45.6218 34.1475C46.6642 31.3053 47.2719 27.8463 47.2719 24.1232H46.2719ZM45.0291 15.4642C45.816 17.9819 46.2719 20.9457 46.2719 24.1232H47.2719C47.2719 20.8532 46.8031 17.7881 45.9836 15.1659L45.0291 15.4642ZM40.4948 8.425C40.4948 11.7474 42.483 14.6007 45.3145 15.7768L45.6981 14.8533C43.2402 13.8324 41.4948 11.3437 41.4948 8.425H40.4948ZM48.1948 0.5C43.9278 0.5 40.4948 4.06276 40.4948 8.425H41.4948C41.4948 4.58581 44.5089 1.5 48.1948 1.5V0.5ZM55.8948 8.425C55.8948 4.06276 52.4618 0.5 48.1948 0.5V1.5C51.8807 1.5 54.8948 4.58581 54.8948 8.425H55.8948Z" fill="black"/>
</svg>
